# xmcd
#
# Track frame offsets: 
#        150
#        14120
#        28531
#        42192
#        57575
#        72216
#        87978
#        100661
#        116245
#        129754
#
# Disc length: 1952 seconds
#
# Revision: 1
# Processed by: cddbd v1.5.2PL0 Copyright (c) Steve Scherf et al.
# Submitted via: ExactAudioCopy v1.0b3
#
DISCID=84079e0a
DTITLE=Terri Clark - Some Songs
DYEAR=2014
DGENRE=Country
TTITLE0=Here Comes Crazy
TTITLE1=Some Songs
TTITLE2=Longer
TTITLE3=Don't Start
TTITLE4=I Cheated On You
TTITLE5=Feelin' Pretty Good Right Now
TTITLE6=Just Add Water
TTITLE7=Wheels Down
TTITLE8=Bad Car
TTITLE9=Better with My Boots On
EXTD=
EXTT0=
EXTT1=
EXTT2=
EXTT3=
EXTT4=
EXTT5=
EXTT6=
EXTT7=
EXTT8=
EXTT9=
PLAYORDER=
